<svg width="100" height="100" viewBox="0 0 100 100" fill="none" xmlns="http://www.w3.org/2000/svg">
  <defs>
    <linearGradient id="pomodoroGrad" x1="0%" y1="0%" x2="100%" y2="100%">
      <stop offset="0%" stopColor="#5865F2" />
      <stop offset="60%" stopColor="#8b5cf6" />
      <stop offset="100%" stopColor="#ec4899" />
    </linearGradient>
    <linearGradient id="sproutGrad" x1="0%" y1="100%" x2="100%" y2="0%">
      <stop offset="0%" stopColor="#059669" />
      <stop offset="100%" stopColor="#34d399" />
    </linearGradient>
    <linearGradient id="glassGrad" x1="0%" y1="0%" x2="0%" y2="100%">
      <stop offset="0%" stopColor="white" stopOpacity="0.15" />
      <stop offset="100%" stopColor="white" stopOpacity="0" />
    </linearGradient>
  </defs>
  <circle cx="50" cy="50" r="45" stroke="url(#sproutGrad)" strokeWidth="1.5" strokeLinecap="round" strokeDasharray="4 6" opacity="0.5" />
  <circle cx="50" cy="50" r="45" stroke="#5865F2" strokeWidth="2.5" strokeLinecap="round" strokeDasharray="40 180 60 80" opacity="0.8" />
  <path d="M50 32 C 45 22, 32 20, 34 8 C 42 10, 48 20, 50 32 Z" fill="url(#sproutGrad)" />
  <path d="M50 32 C 55 22, 68 20, 66 8 C 58 10, 52 20, 50 32 Z" fill="url(#sproutGrad)" />
  <circle cx="50" cy="30" r="3.5" fill="#34d399" />
  <path d="M50 32 C 26 32, 14 44, 14 62 C 14 78, 28 88, 50 88 C 72 88, 86 78, 86 62 C 86 44, 74 32, 50 32 Z" fill="url(#pomodoroGrad)" />
  <path d="M50 34 C 28 34, 16 45, 16 62 C 16 68, 22 55, 50 55 C 78 55, 84 68, 84 62 C 84 45, 72 34, 50 34 Z" fill="url(#glassGrad)" />
  <path d="M36 60 C 36 53, 44 49, 50 60 C 56 71, 64 67, 64 60 C 64 53, 56 49, 50 60 C 44 71, 36 67, 36 60 Z" fill="none" stroke="white" strokeWidth="3.5" strokeLinecap="round" strokeLinejoin="round" opacity="0.9" />
  <circle cx="50" cy="60" r="2.5" fill="#34d399" />
</svg>